<?xml version="1.0" encoding="iso-8859-1"?>
<!-- Generator: Adobe Illustrator 20.1.0, SVG Export Plug-In . SVG Version: 6.00 Build 0)  -->
<svg xmlns="http://www.w3.org/2000/svg" xmlns:xlink="http://www.w3.org/1999/xlink" version="1.1" id="&#1057;&#1083;&#1086;&#1081;_1" x="0px" y="0px" viewBox="0 0 64 64" style="enable-background:new 0 0 64 64;" xml:space="preserve">
<linearGradient id="SVGID_1__49435" gradientUnits="userSpaceOnUse" x1="43" y1="39.5833" x2="43" y2="54.1676" spreadMethod="reflect">
	<stop offset="0" style="stop-color:#6DC7FF"/>
	<stop offset="1" style="stop-color:#E6ABFF"/>
</linearGradient>
<path style="fill:url(#SVGID_1__49435);" d="M43,50h-2v-2c0-1.103,0.897-2,2-2h1c0.552,0,1-0.448,1-1v-2c0-0.552-0.448-1-1-1h-2  c-0.552,0-1,0.448-1,1v1h-2v-1c0-1.654,1.346-3,3-3h2c1.654,0,3,1.346,3,3v2c0,1.654-1.346,3-3,3h-1V50z"/>
<linearGradient id="SVGID_2__49435" gradientUnits="userSpaceOnUse" x1="42" y1="39.5833" x2="42" y2="54.1676" spreadMethod="reflect">
	<stop offset="0" style="stop-color:#6DC7FF"/>
	<stop offset="1" style="stop-color:#E6ABFF"/>
</linearGradient>
<rect x="41" y="52" style="fill:url(#SVGID_2__49435);" width="2" height="2"/>
<linearGradient id="SVGID_3__49435" gradientUnits="userSpaceOnUse" x1="28" y1="31.0833" x2="28" y2="40.5133" spreadMethod="reflect">
	<stop offset="0" style="stop-color:#6DC7FF"/>
	<stop offset="1" style="stop-color:#E6ABFF"/>
</linearGradient>
<circle style="fill:url(#SVGID_3__49435);" cx="28" cy="36" r="4"/>
<linearGradient id="SVGID_4__49435" gradientUnits="userSpaceOnUse" x1="32" y1="5" x2="32" y2="59.3555" spreadMethod="reflect">
	<stop offset="0" style="stop-color:#1A6DFF"/>
	<stop offset="1" style="stop-color:#C822FF"/>
</linearGradient>
<path style="fill:url(#SVGID_4__49435);" d="M46,36.427V28c0-2.757-2.243-5-5-5h-1v-2c0-1.103-0.897-2-2-2h-1v-4c0-4.963-4.037-9-9-9  s-9,4.037-9,9v4h-1c-1.103,0-2,0.897-2,2v2h-1c-2.757,0-5,2.243-5,5v20c0,2.757,2.243,5,5,5h18.792c1.965,3.006,5.355,5,9.208,5  c6.065,0,11-4.935,11-11C54,41.976,50.61,37.737,46,36.427z M38,23h-4v-2h4V23z M21,15c0-3.859,3.141-7,7-7s7,3.141,7,7v4h-1  c-1.103,0-2,0.897-2,2v2h-8v-2c0-1.103-0.897-2-2-2h-1V15z M18,21h4v2h-4V21z M15,51c-1.302,0-2.401-0.838-2.815-2H22v-2H12v-2h6v-2  h-6V28c0-1.654,1.346-3,3-3h26c1.654,0,3,1.346,3,3v8.051C43.67,36.021,43.337,36,43,36c-6.065,0-11,4.935-11,11  c0,1.412,0.277,2.758,0.764,4H15z M43,56c-4.963,0-9-4.037-9-9s4.037-9,9-9s9,4.037,9,9S47.963,56,43,56z"/>
<linearGradient id="SVGID_5__49435" gradientUnits="userSpaceOnUse" x1="28" y1="5" x2="28" y2="59.3555" spreadMethod="reflect">
	<stop offset="0" style="stop-color:#1A6DFF"/>
	<stop offset="1" style="stop-color:#C822FF"/>
</linearGradient>
<path style="fill:url(#SVGID_5__49435);" d="M33,36c0-2.757-2.243-5-5-5s-5,2.243-5,5c0,1.627,0.793,3.061,2,3.974V43c0,1.103,0.897,2,2,2  h2c1.103,0,2-0.897,2-2v-3.026C32.207,39.061,33,37.627,33,36z M29,43h-2v-2.101C27.323,40.965,27.658,41,28,41s0.677-0.035,1-0.101  V43z M28,39c-1.654,0-3-1.346-3-3s1.346-3,3-3s3,1.346,3,3S29.654,39,28,39z"/>
</svg>
